HIERARCHY
ROOT Hips
{
	OFFSET 0.00 0.00 0.00
	CHANNELS 6 Xposition Yposition Zposition Xrotation Yrotation Zrotation
	JOINT Spine
	{
		OFFSET 0.00000 7.50895 0.00000
		CHANNELS 3 Xrotation Yrotation Zrotation
		JOINT Head
		{
			OFFSET 0.00000 13.86115 0.00000
			CHANNELS 3 Xrotation Yrotation Zrotation
			End Site
			{
				OFFSET 0.00000 4.52755 0.00000
			}
		}
		JOINT LeftShoulder
		{
			OFFSET 0.00000 8.20478 0.00000
			CHANNELS 3 Xrotation Yrotation Zrotation
			JOINT LeftArm
			{
				OFFSET 6.63596 0.00000 0.00000
				CHANNELS 3 Xrotation Yrotation Zrotation
				JOINT LeftForeArm
				{
					OFFSET 10.27422 0.00000 0.00000
					CHANNELS 3 Yrotation Zrotation Xrotation
					JOINT LeftHand
					{
						OFFSET 8.52215 0.00000 0.00000
						CHANNELS 3 Xrotation Yrotation Zrotation
						JOINT LeftHandThumb1
						{
							OFFSET 0.00000 0.00000 0.00000
							CHANNELS 3 Xrotation Zrotation Yrotation
							End Site
							{
								OFFSET 0.00000 0.00000 3.93700
							}
						}
						End Site
						{
							OFFSET 3.93700 0.00000 0.00000
						}
					}
				}
			}
		}
		JOINT RightShoulder
		{
			OFFSET 0.00000 8.20478 0.00000
			CHANNELS 3 Xrotation Yrotation Zrotation
			JOINT RightArm
			{
				OFFSET -6.63596 0.00000 0.00000
				CHANNELS 3 Xrotation Yrotation Zrotation
				JOINT RightForeArm
				{
					OFFSET -10.27422 0.00000 0.00000
					CHANNELS 3 Yrotation Zrotation Xrotation
					JOINT RightHand
					{
						OFFSET -8.52215 0.00000 0.00000
						CHANNELS 3 Xrotation Yrotation Zrotation
						JOINT RightHandThumb1
						{
							OFFSET 0.00000 0.00000 0.00000
							CHANNELS 3 Xrotation Zrotation Yrotation
							End Site
							{
								OFFSET 0.00000 0.00000 3.93700
							}
						}
						End Site
						{
							OFFSET -3.93700 0.00000 0.00000
						}
					}
				}
			}
		}
	}
	JOINT LeftUpLeg
	{
		OFFSET 3.00056 0.00000 0.00000
		CHANNELS 3 Xrotation Yrotation Zrotation
		JOINT LeftLeg
		{
			OFFSET 0.00000 -16.49085 0.00000
			CHANNELS 3 Xrotation Yrotation Zrotation
			JOINT LeftFoot
			{
				OFFSET 0.00000 -14.55658 0.00000
				CHANNELS 3 Xrotation Yrotation Zrotation
				JOINT LeftToeBase
				{
					OFFSET 0.00000 -1.25038 4.66650
					CHANNELS 3 Xrotation Yrotation Zrotation
					End Site
					{
						OFFSET 0.00000 0.00000 2.95275
					}
				}
			}
		}
	}
	JOINT RightUpLeg
	{
		OFFSET -3.00056 0.00000 0.00000
		CHANNELS 3 Xrotation Yrotation Zrotation
		JOINT RightLeg
		{
			OFFSET 0.00000 -16.49085 0.00000
			CHANNELS 3 Xrotation Yrotation Zrotation
			JOINT RightFoot
			{
				OFFSET 0.00000 -14.55658 0.00000
				CHANNELS 3 Xrotation Yrotation Zrotation
				JOINT RightToeBase
				{
					OFFSET 0.00000 -1.25038 4.66650
					CHANNELS 3 Xrotation Yrotation Zrotation
					End Site
					{
						OFFSET 0.00000 0.00000 2.95275
					}
				}
			}
		}
	}
}
MOTION
Frames: 23
Frame Time: 0.008333
 -2.4414 32.8870 -1.4633 11.6345 2.0204 -1.9138 -12.5274 4.6534 1.3392 -8.5101 -2.8737 10.1435 9.0634 21.0052 27.2164 -30.9846 -3.8520 -26.9277 -14.5503 -0.0000 12.0417 3.6170 25.6527 -8.3075 33.1476 -0.0000 26.2537 -23.4038 -7.8426 -38.3164 -1.4816 -10.4714 30.6354 14.7525 -0.0000 28.5938 1.5721 -8.4993 10.5194 32.8623 0.0000 -24.3270 -6.9494 7.9138 7.0729 -0.8906 0.0000 0.0000 -7.0692 10.2211 -16.1387 10.1102 0.0000 -0.0000 -7.7497 -7.1657 -2.8838 1.8325 0.0000 0.0000 -7.0469 -7.4323 1.5195 0.6907 -0.0000 -0.0000
 -2.4465 32.8872 -1.4689 11.6349 2.0120 -1.9256 -12.5211 4.6611 1.3371 -8.5279 -2.8661 10.1619 9.0955 21.0301 27.2013 -31.0137 -3.8843 -26.9351 -14.5514 -0.0000 11.9063 3.6504 25.7093 -8.3662 33.1476 -0.0000 26.2537 -23.4070 -7.8432 -38.3056 -1.4643 -10.4602 30.6446 14.7617 -0.0000 28.5896 1.5716 -8.5142 10.4986 32.8623 0.0000 -24.3270 -6.9702 7.9353 7.0949 -0.8829 0.0000 -0.0000 -7.0573 10.2224 -16.1631 10.0827 -0.0000 -0.0000 -7.7595 -7.1804 -2.8634 1.8318 -0.0000 -0.0000 -7.0449 -7.4063 1.5446 0.7213 0.0000 0.0000
 -2.4509 32.8877 -1.4760 11.6442 1.9864 -1.9190 -12.5226 4.6856 1.3127 -8.5424 -2.8596 10.1813 9.0995 21.0150 27.2221 -30.9804 -3.8668 -26.9563 -14.5529 -0.0000 11.9599 3.6372 25.6642 -8.3498 33.1476 -0.0000 26.2537 -23.4019 -7.8398 -38.2956 -1.4742 -10.4734 30.6641 14.7725 -0.0000 28.5930 1.5691 -8.5071 10.4906 32.8623 0.0000 -24.3270 -6.9916 7.9539 7.0991 -0.8808 -0.0000 -0.0000 -7.0453 10.2253 -16.1771 10.1227 -0.0000 0.0000 -7.7870 -7.1543 -2.8599 1.8358 0.0000 -0.0000 -7.0368 -7.4050 1.5306 0.7127 -0.0000 -0.0000
 -2.4549 32.8885 -1.4817 11.6480 1.9752 -1.9272 -12.5198 4.6992 1.3108 -8.5575 -2.8645 10.1833 9.0985 21.0180 27.2208 -30.9811 -3.8917 -26.9758 -14.5272 -0.0000 11.9273 3.6336 25.6383 -8.3493 33.1476 -0.0000 26.2537 -23.4021 -7.8399 -38.2870 -1.4762 -10.4822 30.6668 14.7889 -0.0000 28.6167 1.5684 -8.5011 10.4936 32.8623 0.0000 -24.3270 -7.0066 7.9621 7.1140 -0.8862 0.0000 0.0000 -7.0224 10.2292 -16.1608 10.0624 0.0000 -0.0000 -7.8024 -7.1628 -2.8440 1.8372 0.0000 0.0000 -7.0269 -7.3812 1.5097 0.7255 0.0000 0.0000
 -2.4593 32.8891 -1.4868 11.6460 1.9905 -1.9473 -12.5109 4.6893 1.3226 -8.5776 -2.8549 10.1803 9.1032 21.0164 27.2121 -31.0119 -3.8842 -26.9956 -14.5507 -0.0000 11.9103 3.6749 25.6487 -8.4400 33.1476 -0.0000 26.2537 -23.3851 -7.8561 -38.2836 -1.4927 -10.4769 30.6694 14.7903 -0.0000 28.6111 1.5681 -8.4902 10.5045 32.8623 0.0000 -24.3270 -7.0248 7.9452 7.1407 -0.8747 -0.0000 -0.0000 -7.0271 10.2431 -16.1769 10.1094 -0.0000 0.0000 -7.8054 -7.2134 -2.8181 1.8344 -0.0000 -0.0000 -7.0070 -7.3589 1.4954 0.6972 -0.0000 -0.0000
 -2.4633 32.8896 -1.4930 11.6460 1.9899 -1.9505 -12.5040 4.6876 1.3144 -8.5841 -2.8345 10.1810 9.1043 21.0141 27.2099 -31.0012 -3.9074 -27.0018 -14.5237 -0.0000 11.8985 3.7066 25.6157 -8.5221 33.1476 -0.0000 26.2537 -23.4046 -7.8405 -38.2466 -1.4775 -10.4535 30.6330 14.7537 -0.0000 28.5836 1.5526 -8.3951 10.5174 32.8623 0.0000 -24.3270 -7.0400 7.9480 7.1524 -0.8723 -0.0000 -0.0000 -7.0031 10.2282 -16.1907 10.0392 0.0000 -0.0000 -7.8087 -7.2072 -2.8098 1.8196 -0.0000 -0.0000 -6.9938 -7.3573 1.5168 0.7168 0.0000 0.0000
 -2.4670 32.8903 -1.4995 11.6502 1.9918 -1.9552 -12.5024 4.6977 1.3065 -8.5922 -2.8404 10.1932 9.1177 21.0045 27.2029 -31.0112 -3.9311 -27.0083 -14.4967 -0.0000 11.8508 3.7184 25.5860 -8.5579 33.1476 -0.0000 26.2537 -23.4063 -7.8596 -38.2542 -1.4274 -10.3928 30.6486 14.7337 -0.0000 28.5192 1.5573 -8.3834 10.5627 32.8623 0.0000 -24.3270 -7.0615 7.9531 7.1623 -0.8673 0.0000 0.0000 -6.9966 10.2281 -16.2009 10.0825 -0.0000 -0.0000 -7.8241 -7.2227 -2.8010 1.8201 0.0000 0.0000 -6.9797 -7.3492 1.5384 0.6867 0.0000 0.0000
 -2.4708 32.8910 -1.5061 11.6559 1.9890 -1.9634 -12.5017 4.7013 1.3081 -8.6063 -2.8307 10.1846 9.1295 21.0320 27.1845 -31.0559 -3.9695 -27.0346 -14.4786 -0.0000 11.9259 3.7101 25.5596 -8.5474 33.1476 -0.0000 26.2537 -23.3966 -7.8457 -38.2488 -1.4865 -10.4609 30.6537 14.7626 -0.0000 28.5843 1.5566 -8.3581 10.5893 32.8623 0.0000 -24.3270 -7.0821 7.9538 7.1791 -0.8682 0.0000 -0.0000 -6.9729 10.2264 -16.2061 10.0294 0.0000 -0.0000 -7.8388 -7.2303 -2.7860 1.8162 -0.0000 -0.0000 -6.9789 -7.3333 1.5382 0.7579 0.0000 0.0000
 -2.4742 32.8916 -1.5130 11.6655 1.9817 -1.9644 -12.5027 4.7143 1.2958 -8.6253 -2.8278 10.1982 9.1537 20.9831 27.1906 -31.0422 -3.9155 -27.0184 -14.4857 -0.0000 11.8373 3.7347 25.6013 -8.5904 33.1476 -0.0000 26.2537 -23.3993 -7.8506 -38.2488 -1.4644 -10.4417 30.6677 14.7637 -0.0000 28.5835 1.5549 -8.3787 10.5526 32.8623 0.0000 -24.3270 -7.1082 7.9527 7.1872 -0.8603 -0.0000 0.0000 -6.9559 10.2365 -16.2222 9.9864 0.0000 -0.0000 -7.8621 -7.2202 -2.7781 1.8185 0.0000 0.0000 -6.9670 -7.3361 1.5187 0.7138 0.0000 -0.0000
 -2.4776 32.8923 -1.5201 11.6699 1.9827 -1.9700 -12.5000 4.7143 1.2956 -8.6321 -2.8278 10.1850 9.1549 20.9802 27.1790 -31.0418 -3.9386 -27.0243 -14.4729 -0.0000 11.8166 3.7326 25.5770 -8.5932 33.1476 -0.0000 26.2537 -23.3870 -7.8446 -38.2547 -1.4873 -10.4603 30.6846 14.7759 -0.0000 28.5959 1.5610 -8.4040 10.5623 32.8623 0.0000 -24.3270 -7.1287 7.9493 7.1936 -0.8511 -0.0000 0.0000 -6.9531 10.2799 -16.2649 10.0484 0.0000 0.0000 -7.8742 -7.2172 -2.7667 1.8125 0.0000 -0.0000 -6.9583 -7.3355 1.4930 0.7220 0.0000 0.0000
 -2.4814 32.8927 -1.5264 11.6735 1.9745 -1.9794 -12.5012 4.7329 1.3016 -8.6357 -2.8315 10.1759 9.1446 20.9424 27.1834 -31.0058 -3.9358 -27.0272 -14.4737 -0.0000 11.7797 3.7270 25.5873 -8.5773 33.1476 -0.0000 26.2537 -23.3751 -7.8408 -38.2556 -1.5107 -10.4926 30.6809 14.7932 -0.0000 28.6834 1.5655 -8.3828 10.6178 32.8623 0.0000 -24.3270 -7.1462 7.9699 7.2163 -0.8623 -0.0000 -0.0000 -6.9313 10.2386 -16.2601 10.0013 0.0000 -0.0000 -7.8916 -7.2268 -2.7529 1.8165 -0.0000 -0.0000 -6.9368 -7.3120 1.5302 0.7132 0.0000 0.0000
 -2.4844 32.8934 -1.5330 11.6824 1.9724 -1.9830 -12.5044 4.7369 1.2980 -8.6447 -2.8320 10.1751 9.1330 20.9446 27.1914 -30.9984 -3.9462 -27.0608 -14.4830 -0.0000 11.8552 3.6949 25.5712 -8.5090 33.1476 -0.0000 26.2537 -23.3776 -7.8411 -38.2628 -1.4803 -10.4708 30.7015 14.8229 -0.0000 28.6487 1.5749 -8.5022 10.5344 32.8623 0.0000 -24.3270 -7.1745 7.9844 7.2221 -0.8475 0.0000 0.0000 -6.9176 10.2526 -16.2990 10.0202 -0.0000 0.0000 -7.9132 -7.2324 -2.7445 1.8182 0.0000 0.0000 -6.9219 -7.3177 1.5469 0.6924 0.0000 0.0000
 -2.4878 32.8938 -1.5400 11.6850 1.9673 -1.9888 -12.5030 4.7469 1.2953 -8.6452 -2.8319 10.1788 9.1510 20.9389 27.1858 -31.0264 -3.9412 -27.0668 -14.4984 -0.0000 11.8552 3.7098 25.5744 -8.5421 33.1476 -0.0000 26.2537 -23.3743 -7.8383 -38.2400 -1.4810 -10.4555 30.6775 14.7965 -0.0000 28.6196 1.5619 -8.3828 10.5936 32.8623 0.0000 -24.3270 -7.1935 7.9954 7.2398 -0.8525 -0.0000 0.0000 -6.9019 10.2128 -16.3233 10.0258 -0.0000 -0.0000 -7.9270 -7.2182 -2.7289 1.8167 -0.0000 -0.0000 -6.9182 -7.3336 1.4894 0.7303 0.0000 -0.0000
 -2.4912 32.8946 -1.5449 11.6825 1.9787 -2.0080 -12.5057 4.7130 1.3178 -8.6277 -2.7991 10.1507 9.1696 20.9478 27.1655 -31.0182 -3.9530 -27.0732 -14.4992 -0.0000 11.8463 3.6963 25.5736 -8.5116 33.1476 -0.0000 26.2537 -23.3849 -7.8003 -38.2402 -1.4338 -10.4290 30.6863 14.8163 -0.0000 28.5372 1.5585 -8.4854 10.4474 32.8623 0.0000 -24.3270 -7.2064 7.9916 7.2607 -0.8493 0.0000 0.0000 -6.8826 10.2507 -16.3800 9.9829 0.0000 0.0000 -7.9278 -7.2655 -2.7040 1.8086 -0.0000 0.0000 -6.9030 -7.3095 1.4930 0.7416 -0.0000 -0.0000
 -2.4959 32.8950 -1.5505 11.6804 1.9722 -2.0210 -12.4997 4.7247 1.3198 -8.6273 -2.7993 10.1611 9.1676 20.9416 27.1654 -31.0318 -3.9683 -27.0800 -14.4960 -0.0000 11.8381 3.6899 25.5681 -8.4987 33.1476 -0.0000 26.2537 -23.3960 -7.8010 -38.2343 -1.4194 -10.4084 30.6850 14.8142 -0.0000 28.5361 1.5525 -8.4561 10.4429 32.8623 0.0000 -24.3270 -7.2151 7.9933 7.2890 -0.8590 0.0000 0.0000 -6.8707 10.2058 -16.3671 10.0009 0.0000 0.0000 -7.9351 -7.2748 -2.6851 1.8085 -0.0000 0.0000 -6.8834 -7.2806 1.4885 0.7247 -0.0000 -0.0000
 -2.4999 32.8958 -1.5564 11.6811 1.9714 -2.0303 -12.5034 4.7297 1.3277 -8.6088 -2.8026 10.1334 9.1749 20.9426 27.1431 -31.0357 -4.0144 -27.0721 -14.4905 -0.0000 11.8165 3.7049 25.5813 -8.5287 33.1476 -0.0000 26.2537 -23.3785 -7.8074 -38.2125 -1.4361 -10.3942 30.6602 14.8065 -0.0000 28.4926 1.5428 -8.4193 10.4233 32.8623 0.0000 -24.3270 -7.2291 7.9889 7.3060 -0.8606 -0.0000 0.0000 -6.8456 10.2160 -16.4042 9.9643 -0.0000 0.0000 -7.9438 -7.2765 -2.6696 1.8059 0.0000 -0.0000 -6.8633 -7.2873 1.5201 0.6875 0.0000 -0.0000
 -2.5072 32.8963 -1.5662 11.6952 1.9082 -2.0313 -12.5047 4.7851 1.3084 -8.6259 -2.7987 10.1703 9.1890 20.9446 27.1631 -31.1063 -3.9690 -27.0837 -14.5042 -0.0000 11.9099 3.7003 25.5306 -8.5338 33.1476 -0.0000 26.2537 -23.4073 -7.7635 -38.2059 -1.4271 -10.4409 30.6801 14.8334 -0.0000 28.6365 1.5562 -8.3929 10.5440 32.8623 0.0000 -24.3270 -7.2563 8.0428 7.3285 -0.8674 0.0000 0.0000 -6.8299 10.2257 -16.4241 9.9953 0.0000 0.0000 -7.9947 -7.2075 -2.6478 1.8345 -0.0000 -0.0000 -6.8598 -7.2941 1.4875 0.7070 -0.0000 -0.0000
 -2.5106 32.8971 -1.5732 11.7013 1.9049 -2.0275 -12.5075 4.7852 1.2912 -8.6122 -2.7927 10.1728 9.1558 20.9146 27.1828 -31.0586 -3.9652 -27.0783 -14.5186 -0.0000 11.8849 3.7125 25.5254 -8.5632 33.1476 -0.0000 26.2537 -23.3965 -7.7520 -38.1977 -1.4447 -10.4527 30.6879 14.8445 -0.0000 28.6441 1.5617 -8.4151 10.5534 32.8623 0.0000 -24.3270 -7.2776 8.0601 7.3275 -0.8646 -0.0000 -0.0000 -6.8036 10.2574 -16.4978 9.9893 -0.0000 0.0000 -8.0120 -7.1990 -2.6484 1.8286 0.0000 -0.0000 -6.8528 -7.2916 1.5128 0.7359 -0.0000 -0.0000
 -2.5149 32.8968 -1.5783 11.7024 1.9306 -2.0480 -12.5124 4.7538 1.3055 -8.6006 -2.7881 10.1538 9.1533 20.9262 27.1790 -31.0745 -4.0000 -27.0944 -14.5031 -0.0000 11.8934 3.7107 25.5152 -8.5621 33.1476 -0.0000 26.2537 -23.3957 -7.7333 -38.1983 -1.4324 -10.4313 30.6809 14.8225 -0.0000 28.6559 1.5544 -8.3720 10.5575 32.8623 0.0000 -24.3270 -7.3511 8.1770 7.3538 -0.7888 0.0000 -0.0000 -6.8299 10.1273 -16.4892 9.9513 0.0000 -0.0000 -8.0125 -7.2530 -2.6255 1.8181 0.0000 -0.0000 -6.8404 -7.2654 1.5354 0.7292 0.0000 0.0000
 -2.5205 32.8974 -1.5849 11.7057 1.9293 -2.0673 -12.5143 4.7504 1.3144 -8.5945 -2.7888 10.1552 9.1619 20.9188 27.1885 -30.9527 -4.0548 -27.0790 -14.5207 -0.0000 11.7363 3.6889 25.5354 -8.5065 33.1476 -0.0000 26.2537 -23.3916 -7.7260 -38.1921 -1.4282 -10.4174 30.6839 14.8212 -0.0000 28.6346 1.5523 -8.3646 10.5525 32.8623 0.0000 -24.3270 -7.3756 8.2027 7.3906 -0.7942 -0.0000 -0.0000 -6.8176 10.0673 -16.5078 9.9629 0.0000 -0.0000 -8.0256 -7.2974 -2.5985 1.8158 0.0000 -0.0000 -6.8199 -7.2192 1.5569 0.6959 -0.0000 -0.0000
 -2.5252 32.8982 -1.5922 11.7076 1.9305 -2.0775 -12.5101 4.7411 1.3092 -8.5867 -2.7768 10.1838 9.1507 20.9321 27.2012 -31.0987 -4.0222 -27.1189 -14.4900 -0.0000 11.8935 3.7055 25.4981 -8.5558 33.1476 -0.0000 26.2537 -23.3862 -7.7268 -38.1687 -1.4255 -10.3889 30.6708 14.8231 -0.0000 28.6073 1.5528 -8.3614 10.5594 32.8623 0.0000 -24.3270 -7.3933 8.1989 7.4119 -0.7959 -0.0000 0.0000 -6.8013 10.0745 -16.5478 10.0203 0.0000 -0.0000 -8.0351 -7.2882 -2.5803 1.8093 -0.0000 0.0000 -6.8052 -7.2308 1.5495 0.7290 0.0000 0.0000
 -2.5301 32.8989 -1.5992 11.7084 1.9316 -2.0851 -12.5032 4.7358 1.3029 -8.5888 -2.7919 10.1717 9.1416 20.9227 27.2002 -31.0934 -4.0421 -27.1045 -14.4740 -0.0000 11.8631 3.6976 25.4972 -8.5381 33.1476 -0.0000 26.2537 -23.3817 -7.7259 -38.1597 -1.4290 -10.3606 30.6769 14.8055 -0.0000 28.5675 1.5517 -8.3929 10.5140 32.8623 0.0000 -24.3270 -7.4191 8.2356 7.4303 -0.7909 -0.0000 0.0000 -6.7693 10.0590 -16.6074 9.9324 -0.0000 -0.0000 -8.0464 -7.3062 -2.5670 1.8067 0.0000 0.0000 -6.7915 -7.2090 1.5285 0.7492 0.0000 -0.0000
 -2.5348 32.9002 -1.6076 11.7205 1.9274 -2.0887 -12.5051 4.7430 1.2935 -8.5904 -2.7919 10.1737 9.1553 20.9224 27.2016 -30.9888 -4.0984 -27.0848 -14.5010 -0.0000 11.7296 3.6739 25.5046 -8.4815 33.1476 -0.0000 26.2537 -23.3836 -7.7275 -38.1611 -1.4433 -10.3579 30.6935 14.8039 -0.0000 28.5213 1.5425 -8.3953 10.4504 32.8623 0.0000 -24.3270 -7.4606 8.2668 7.4461 -0.7767 0.0000 -0.0000 -6.7534 10.0416 -16.6862 9.9777 0.0000 -0.0000 -8.0772 -7.3140 -2.5574 1.8138 0.0000 0.0000 -6.7791 -7.1953 1.5512 0.7518 -0.0000 0.0000
